#!OML:ASF H:\Terrain\Patient Classification 1\Takeo\Monday\TakeoMonday.ASF
:FULLY-SPECIFIED
:DEGREES
260
root 10.8251 18.4705 0.842264 11.8417 3.23929 -0.845865
lowerback 21.9138 -1.22165 -0.322855
upperback 3.06894 -1.63654 0.225122
thorax -8.86904 -0.758335 0.903829
lowerneck -17.3977 -0.311135 -0.348225
upperneck -12.4914 -0.359714 0.0994639
head -1.12467 -0.167845 0.0739406
rclavicle -2.16675e-014 4.77083e-015
rhumerus -43.6195 0.116526 -81.3092
rradius 39.894
rwrist -24.3992
rhand -32.5625 23.1001
rfingers 7.12502
rthumb -5.79185 -6.80076
lclavicle -2.16675e-014 4.77083e-015
lhumerus -42.0139 7.35796 73.3015
lradius 35.7289
lwrist 16.8865
lhand -26.1325 15.195
lfingers 7.12502
lthumb 0.417807 45.1743
rfemur -24.1264 6.08838 20.1758
rtibia 26.7258
rfoot -0.804207 -9.99412
rtoes -3.16312
lfemur -24.1144 -0.79401 -21.087
ltibia 26.9871
lfoot -0.313973 10.1738
ltoes -2.39784
261
root 10.8159 18.4723 0.851443 11.3657 3.40828 -0.957283
lowerback 21.7088 -1.23211 -0.0632464
upperback 2.9838 -1.58874 0.24364
thorax -8.86061 -0.744226 0.758534
lowerneck -17.5941 -0.384494 -0.209672
upperneck -11.8866 -0.487063 -0.0784543
head -0.900422 -0.23839 -0.0104892
rclavicle 7.95139e-016 6.36111e-015
rhumerus -43.6733 -0.156537 -81.1709
rradius 39.507
rwrist -23.9227
rhand -32.6367 22.788
rfingers 7.12502
rthumb -5.8635 -7.11086
lclavicle 7.95139e-016 6.36111e-015
lhumerus -42.0805 7.25214 72.9567
lradius 35.403
lwrist 16.8143
lhand -25.6438 15.4279
lfingers 7.12502
lthumb 0.889765 45.4058
rfemur -23.1187 6.18473 20.414
rtibia 25.7978
rfoot -0.672166 -10.3561
rtoes -3.09146
lfemur -23.5069 -0.685624 -21.0088
ltibia 26.8518
lfoot -0.257529 10.1017
ltoes -2.97572
262
root 10.8108 18.4758 0.857792 10.9139 3.59017 -1.29064
lowerback 21.3953 -1.24992 0.477654
upperback 2.95048 -1.48034 0.33839
thorax -8.74146 -0.710064 0.515551
lowerneck -17.4739 -0.575445 -0.423464
upperneck -11.5526 -0.702449 -0.0684568
head -0.809576 -0.338082 0.0183084
rclavicle -3.08116e-015 2.78299e-015
rhumerus -43.5815 -0.575911 -80.8946
rradius 39.0589
rwrist -23.307
rhand -32.4983 23.3364
rfingers 7.12502
rthumb -5.72984 -6.5661
lclavicle -3.08116e-015 2.78299e-015
lhumerus -42.0664 7.0976 72.7336
lradius 35.1927
lwrist 16.613
lhand -24.9856 15.277
lfingers 7.12502
lthumb 1.52546 45.2513
rfemur -22.2455 6.13159 20.909
rtibia 25.0642
rfoot -0.654637 -10.5273
rtoes -3.03688
lfemur -22.8889 -0.698574 -20.6748
ltibia 26.6358
lfoot -0.203057 10.1026
ltoes -3.4242
263
root 10.8015 18.4759 0.862316 10.4658 3.64593 -1.38188
lowerback 21.0518 -1.23654 0.508297
upperback 2.96737 -1.44596 0.482908
thorax -8.53515 -0.693669 0.637747
lowerneck -17.329 -0.639583 -0.865962
upperneck -11.2653 -0.698868 0.228341
head -0.735574 -0.317999 0.183244
rclavicle 7.35503e-015 -1.98785e-016
rhumerus -43.3448 -0.501301 -80.6077
rradius 38.9057
rwrist -23.3847
rhand -32.4157 23.6623
rfingers 7.12502
rthumb -5.6501 -6.24242
lclavicle 7.35503e-015 -1.98785e-016
lhumerus -41.9583 7.33481 72.5396
lradius 34.9208
lwrist 16.2625
lhand -24.7308 15.0648
lfingers 7.12502
lthumb 1.77161 45.0371
rfemur -21.5137 6.15548 21.1256
rtibia 24.5438
rfoot -0.786916 -10.7979
rtoes -2.77229
lfemur -22.2345 -0.795181 -20.564
ltibia 26.3062
lfoot -0.0161001 10.2044
ltoes -2.92274
264
root 10.7878 18.472 0.867401 9.96661 3.62517 -0.957392
lowerback 20.8153 -1.18325 -0.0381075
upperback 2.97556 -1.50405 0.445342
thorax -8.38549 -0.706121 0.918794
lowerneck -17.1317 -0.535069 -0.815386
upperneck -11.0875 -0.571431 0.188917
head -0.708723 -0.256555 0.168179
rclavicle 8.54774e-015 3.77691e-015
rhumerus -43.2259 -0.356808 -80.5172
rradius 39.0047
rwrist -23.4244
rhand -31.8298 21.9147
rfingers 7.12502
rthumb -5.08442 -8.00432
lclavicle 8.54774e-015 3.77691e-015
lhumerus -41.8195 7.68514 72.1892
lradius 34.5438
lwrist 15.8902
lhand -24.8343 15.1545
lfingers 7.12502
lthumb 1.6716 45.1277
rfemur -20.7252 6.02142 20.8522
rtibia 24.1904
rfoot -0.888813 -10.9973
rtoes -3.05158
lfemur -21.4248 -0.834141 -21.046
ltibia 25.8815
lfoot 0.241279 10.2611
ltoes -3.12544
265
root 10.7774 18.4658 0.868172 9.48254 3.75486 -0.652254
lowerback 20.5704 -1.16699 -0.189646
upperback 3.0119 -1.52929 0.309924
thorax -8.21346 -0.717069 0.858461
lowerneck -17.2035 -0.56762 -0.742599
upperneck -10.7636 -0.623501 0.204303
head -0.59346 -0.285275 0.158244
rclavicle 2.74323e-014 -5.1684e-015
rhumerus -43.1851 -0.636051 -80.5042
rradius 39.1244
rwrist -23.2148
rhand -30.8106 20.5125
rfingers 7.12502
rthumb -4.10026 -9.42775
lclavicle 2.74323e-014 -5.1684e-015
lhumerus -41.4962 7.65201 71.84
lradius 34.2984
lwrist 15.7211
lhand -24.6998 15.8019
lfingers 7.12502
lthumb 1.80146 45.774
rfemur -19.9371 5.4929 20.7871
rtibia 24.0149
rfoot -0.878482 -10.8998
rtoes -3.33161
lfemur -20.5884 -0.98018 -21.3978
ltibia 25.3782
lfoot 0.377473 10.3667
ltoes -3.9021
266
root 10.7671 18.4598 0.863838 8.97077 3.88901 -0.486847
lowerback 20.4877 -1.10878 -0.180476
upperback 2.96263 -1.45759 0.244054
thorax -8.22593 -0.684006 0.761283
lowerneck -17.2989 -0.738883 -1.03566
upperneck -10.2561 -0.786211 0.497005
head -0.411224 -0.354125 0.289662
rclavicle -4.62174e-015 2.38542e-015
rhumerus -43.1976 -0.952051 -80.4017
rradius 39.1695
rwrist -23.1528
rhand -30.6071 20.568
rfingers 7.12502
rthumb -3.90374 -9.37602
lclavicle -4.62174e-015 2.38542e-015
lhumerus -41.2791 7.35119 71.6704
lradius 34.1681
lwrist 15.5542
lhand -24.2028 16.6017
lfingers 7.12502
lthumb 2.28152 46.5692
rfemur -19.2592 5.18193 20.7748
rtibia 23.9112
rfoot -1.06471 -10.9553
rtoes -2.83543
lfemur -19.7725 -1.26644 -21.5539
ltibia 24.9334
lfoot 0.254121 10.7092
ltoes -3.20216
267
root 10.7505 18.4504 0.859708 8.61975 3.84629 -0.281086
lowerback 20.2662 -0.998622 -0.480635
upperback 2.79983 -1.37852 0.262203
thorax -8.27809 -0.636678 0.928432
lowerneck -17.0691 -0.668944 -0.851108
upperneck -9.86835 -0.740422 0.0871657
head -0.324478 -0.34235 0.133466
rclavicle -8.00108e-015 3.47873e-015
rhumerus -43.218 -0.977052 -80.2724
rradius 39.1597
rwrist -22.9906
rhand -30.7021 20.8418
rfingers 7.12502
rthumb -3.99546 -9.10048
lclavicle -8.00108e-015 3.47873e-015
lhumerus -41.3938 7.45594 71.4543
lradius 34.2388
lwrist 15.215
lhand -23.8463 16.8614
lfingers 7.12502
lthumb 2.62581 46.825
rfemur -18.8451 5.25682 20.6419
rtibia 23.7786
rfoot -1.19065 -11.1409
rtoes -3.05554
lfemur -19.2431 -1.24792 -21.7514
ltibia 24.641
lfoot 0.101551 10.8348
ltoes -1.30746
268
root 10.7355 18.4388 0.855883 8.21534 3.87978 -0.499031
lowerback 19.993 -1.01111 -0.381194
upperback 2.68384 -1.36204 0.393511
thorax -8.25662 -0.630268 1.00555
lowerneck -16.7653 -0.515034 -0.665894
upperneck -9.63324 -0.578424 -0.185495
head -0.297574 -0.270578 0.0258716
rclavicle 2.11209e-014 3.97569e-016
rhumerus -43.147 -0.710459 -80.2679
rradius 39.1182
rwrist -22.979
rhand -30.6285 20.9029
rfingers 7.12502
rthumb -3.92438 -9.04067
lclavicle 2.11209e-014 3.97569e-016
lhumerus -41.3871 7.57034 71.2767
lradius 34.1486
lwrist 15.2446
lhand -23.9547 16.2692
lfingers 7.12502
lthumb 2.5211 46.2341
rfemur -18.3246 5.26293 21.0099
rtibia 23.6513
rfoot -1.37823 -11.1265
rtoes -2.86909
lfemur -18.7366 -0.999343 -21.4921
ltibia 24.4193
lfoot -0.0619115 10.6615
ltoes -0.0265165
269
root 10.7252 18.4302 0.851009 7.65759 3.93217 -0.483637
lowerback 19.8391 -1.02136 -0.354259
upperback 2.68352 -1.3715 0.375223
thorax -8.17459 -0.63677 0.969478
lowerneck -16.8928 -0.539087 -0.532757
upperneck -9.06647 -0.631509 -0.265428
head -0.0948534 -0.304052 -0.0244802
rclavicle 1.15295e-014 1.19271e-015
rhumerus -42.9296 -0.333496 -80.4682
rradius 39.0303
rwrist -23.2953
rhand -30.6165 20.8061
rfingers 7.12502
rthumb -3.91282 -9.13768
lclavicle 1.15295e-014 1.19271e-015
lhumerus -40.9542 7.24704 71.1894
lradius 33.7402
lwrist 15.5865
lhand -24.253 15.8352
lfingers 7.12502
lthumb 2.23298 45.8032
rfemur -17.5713 5.13064 21.1177
rtibia 23.4878
rfoot -1.74587 -10.9778
rtoes -1.99274
lfemur -18.01 -0.856904 -21.5035
ltibia 24.2589
lfoot -0.575271 10.6364
ltoes 1.20902
270
root 10.7136 18.4237 0.845446 7.30179 3.8392 -0.0449766
lowerback 19.4518 -0.935286 -0.739757
upperback 2.67543 -1.35544 0.194845
thorax -7.96937 -0.622332 0.981471
lowerneck -17.2376 -0.553097 -0.413838
upperneck -8.22268 -0.6644 -0.294425
head 0.234563 -0.32658 -0.0573914
rclavicle -6.70898e-015 -5.56597e-015
rhumerus -42.6086 -0.221484 -80.6861
rradius 38.9421
rwrist -23.2643
rhand -30.4674 20.7589
rfingers 7.12502
rthumb -3.76887 -9.18751
lclavicle -6.70898e-015 -5.56597e-015
lhumerus -40.5599 6.99748 70.9522
lradius 33.5772
lwrist 15.6447
lhand -24.516 15.7269
lfingers 7.12502
lthumb 1.97903 45.6975
rfemur -17.008 5.17771 20.6748
rtibia 23.1857
rfoot -1.86769 -10.8794
rtoes -1.28943
lfemur -17.5227 -0.787645 -21.9932
ltibia 24.2025
lfoot -0.947276 10.7007
ltoes 1.78139
271
root 10.7039 18.4184 0.839453 6.93774 3.7936 -0.0262668
lowerback 19.1569 -0.884635 -0.712367
upperback 2.55905 -1.28483 0.174223
thorax -7.93871 -0.590003 0.921117
lowerneck -17.0459 -0.526489 -0.814998
upperneck -7.91643 -0.547243 0.314212
head 0.308028 -0.246771 0.206403
rclavicle 1.0138e-014 -1.13307e-014
rhumerus -42.3739 -0.436078 -80.6829
rradius 38.8571
rwrist -22.806
rhand -30.2986 20.5524
rfingers 7.12502
rthumb -3.60581 -9.39687
lclavicle 1.0138e-014 -1.13307e-014
lhumerus -40.4951 6.73199 70.8344
lradius 33.6518
lwrist 15.9214
lhand -24.9901 15.1676
lfingers 7.12502
lthumb 1.52112 45.1419
rfemur -16.3871 5.25574 20.685
rtibia 22.7651
rfoot -1.90905 -10.8142
rtoes -0.95794
lfemur -17.1286 -0.864855 -22.0062
ltibia 24.2112
lfoot -1.034 10.8476
ltoes 1.36819
272
root 10.6994 18.409 0.834321 6.39327 3.85234 -0.2817
lowerback 19.0127 -0.90413 -0.306777
upperback 2.48186 -1.22275 0.226264
thorax -7.95298 -0.571636 0.72891
lowerneck -16.5491 -0.50522 -1.00927
upperneck -7.99148 -0.484132 0.613055
head 0.205841 -0.205082 0.335962
rclavicle -9.49197e-015 -4.96962e-015
rhumerus -42.1485 -0.564153 -80.7229
rradius 38.6809
rwrist -22.8826
rhand -30.4629 21.1983
rfingers 7.12502
rthumb -3.76448 -8.74817
lclavicle -9.49197e-015 -4.96962e-015
lhumerus -40.4188 6.399 70.8996
lradius 33.7359
lwrist 16.4203
lhand -25.4621 15.065
lfingers 7.12502
lthumb 1.06524 45.042
rfemur -15.4754 5.01319 21.0791
rtibia 22.2545
rfoot -1.93355 -10.6192
rtoes -0.824069
lfemur -16.5371 -0.986399 -21.7364
ltibia 24.2633
lfoot -1.22062 10.9777
ltoes 0.364505
273
root 10.692 18.3874 0.821858 5.94169 3.871 -0.540355
lowerback 18.7465 -0.933381 0.0943808
upperback 2.44363 -1.17965 0.233726
thorax -7.85824 -0.563718 0.493412
lowerneck -16.4322 -0.455314 -0.775072
upperneck -7.66755 -0.462338 0.408436
head 0.29078 -0.203911 0.234001
rclavicle 3.50358e-015 9.74045e-015
rhumerus -41.8036 -0.47817 -80.9952
rradius 38.4658
rwrist -23.3091
rhand -30.8629 22.3693
rfingers 7.12502
rthumb -4.1507 -7.57004
lclavicle 3.50358e-015 9.74045e-015
lhumerus -40.1649 6.17653 70.8643
lradius 33.8201
lwrist 16.6617
lhand -25.6692 15.2876
lfingers 7.12502
lthumb 0.865243 45.2656
rfemur -14.7043 4.93876 21.4442
rtibia 21.6997
rfoot -2.00966 -10.5337
rtoes -0.261198
lfemur -16.0892 -1.03352 -21.4568
ltibia 24.301
lfoot -1.43241 11.0361
ltoes -1.01884
274
root 10.6804 18.3599 0.803347 5.55972 3.80977 -0.597391
lowerback 18.5194 -0.901739 0.175881
upperback 2.37663 -1.12188 0.248818
thorax -7.8089 -0.538701 0.445721
lowerneck -16.5425 -0.42953 -0.712373
upperneck -7.0623 -0.439654 0.302148
head 0.506179 -0.196684 0.191378
rclavicle -2.03009e-014 4.67144e-015
rhumerus -41.4328 -0.243897 -81.1491
rradius 38.4129
rwrist -23.2173
rhand -30.8131 21.8325
rfingers 7.12502
rthumb -4.10267 -8.10771
lclavicle -2.03009e-014 4.67144e-015
lhumerus -39.822 6.13737 70.7978
lradius 33.7726
lwrist 16.6922
lhand -25.6847 14.9271
lfingers 7.12502
lthumb 0.850223 44.9051
rfemur -14.0696 5.01153 21.5646
rtibia 21.2377
rfoot -2.23492 -10.3869
rtoes -0.121994
lfemur -15.724 -1.18376 -21.3594
ltibia 24.2541
lfoot -1.76781 11.2535
ltoes -1.09299
